<svg width="173" height="61" viewBox="0 0 173 61" fill="none" xmlns="http://www.w3.org/2000/svg">
<path d="M5.70186 13.8645C4.71953 13.8645 3.8524 13.6638 3.09949 13.2624C2.34659 12.8609 1.75784 12.298 1.33391 11.5733C0.909315 10.8483 0.69751 9.99452 0.69751 9.013V1.13848L2.54567 1.13005V8.91767C2.54567 9.44945 2.63574 9.91703 2.81622 10.321C2.99637 10.7254 3.23754 11.0633 3.54008 11.3347C3.84228 11.6061 4.18071 11.8113 4.55537 11.9498C4.93068 12.0882 5.31285 12.1576 5.70186 12.1576C6.09741 12.1576 6.48283 12.0873 6.85717 11.9452C7.23215 11.8039 7.57091 11.5976 7.87311 11.3262C8.17532 11.0545 8.41487 10.717 8.5924 10.3126C8.76962 9.90827 8.85871 9.44329 8.85871 8.91767V1.13005H10.7069V9.013C10.7069 9.98901 10.4951 10.8408 10.0705 11.5688C9.64588 12.2961 9.05746 12.8609 8.30488 13.2624C7.55198 13.6638 6.6842 13.8645 5.70186 13.8645Z" fill="#221684"/>
<path d="M19.7576 13.6046V9.00441C19.7576 8.6406 19.7266 8.26674 19.6656 7.88282C19.6049 7.49858 19.4884 7.1419 19.3167 6.81278C19.1454 6.48366 18.9042 6.2181 18.5935 6.01576C18.2822 5.81375 17.8768 5.71258 17.3769 5.71258C17.0512 5.71258 16.7434 5.76576 16.4526 5.87276C16.1622 5.97977 15.9079 6.15162 15.6899 6.38833C15.4719 6.62536 15.3006 6.93729 15.1753 7.32413C15.0506 7.71064 14.9879 8.18146 14.9879 8.73593L13.8545 8.31148C13.8545 7.46258 14.0144 6.71323 14.3339 6.06343C14.6534 5.41362 15.1129 4.90681 15.7118 4.543C16.3103 4.17951 17.0342 3.99728 17.883 3.99728C18.5335 3.99728 19.0801 4.10136 19.5217 4.30921C19.9636 4.51706 20.3226 4.78975 20.5987 5.12763C20.8748 5.46582 21.0853 5.83385 21.2311 6.23236C21.376 6.63087 21.4749 7.02063 21.5271 7.40162C21.5797 7.78327 21.6055 8.11823 21.6055 8.40681V13.6046H19.7576ZM13.1398 13.6046V4.24857H14.7699V6.95123H14.9879V13.6046H13.1398Z" fill="#221684"/>
<path d="M24.0468 4.24862H25.8691V13.6047H24.0468V4.24862ZM24.0468 0.956787H25.8691V2.71554H24.0468V0.956787Z" fill="#221684"/>
<path d="M32.5737 12.1577C33.4751 12.1577 34.1474 11.8559 34.5926 11.2524C35.0371 10.649 35.2593 9.87046 35.2593 8.9178C35.2593 7.94179 35.0341 7.16066 34.5834 6.57409C34.1327 5.98848 33.4634 5.69503 32.5737 5.69503C31.9634 5.69503 31.4608 5.83251 31.0656 6.10683C30.6701 6.38115 30.3767 6.75956 30.1851 7.24173C29.9932 7.72389 29.8973 8.28258 29.8973 8.9178C29.8973 9.89964 30.1237 10.6853 30.5774 11.2738C31.0304 11.863 31.6961 12.1577 32.5737 12.1577ZM32.5737 13.8646C31.6322 13.8646 30.8156 13.6535 30.1237 13.232C29.4322 12.8105 28.8986 12.2288 28.5239 11.4865C28.1486 10.7446 27.9613 9.88797 27.9613 8.9178C27.9613 7.94179 28.1532 7.08284 28.537 6.34062C28.9208 5.5984 29.458 5.02091 30.1502 4.60813C30.8414 4.19503 31.6498 3.9888 32.5737 3.9888C33.5156 3.9888 34.3325 4.19957 35.024 4.6211C35.7156 5.04295 36.2505 5.62337 36.6281 6.36202C37.0063 7.10132 37.1949 7.95314 37.1949 8.9178C37.1949 9.89413 37.0043 10.7528 36.6241 11.495C36.2433 12.2369 35.7071 12.8176 35.0149 13.2362C34.3233 13.6548 33.5097 13.8646 32.5737 13.8646Z" fill="#221684"/>
<path d="M45.7227 13.6046V9.00441C45.7227 8.6406 45.6917 8.26674 45.6307 7.88282C45.57 7.49858 45.4535 7.1419 45.2818 6.81278C45.1105 6.48366 44.869 6.2181 44.5586 6.01576C44.2473 5.81375 43.8416 5.71258 43.342 5.71258C43.0162 5.71258 42.7085 5.76576 42.4177 5.87276C42.1273 5.97977 41.873 6.15162 41.655 6.38833C41.437 6.62536 41.2657 6.93729 41.1403 7.32413C41.0157 7.71064 40.953 8.18146 40.953 8.73593L39.8196 8.31148C39.8196 7.46258 39.9795 6.71323 40.299 6.06343C40.6185 5.41362 41.078 4.90681 41.6769 4.543C42.2754 4.17951 42.9993 3.99728 43.8481 3.99728C44.4986 3.99728 45.0452 4.10136 45.4868 4.30921C45.9287 4.51706 46.2873 4.78975 46.5637 5.12763C46.8398 5.46582 47.0503 5.83385 47.1962 6.23236C47.3411 6.63087 47.44 7.02063 47.4922 7.40162C47.5448 7.78327 47.5706 8.11823 47.5706 8.40681V13.6046H45.7227ZM39.1049 13.6046V4.24857H40.735V6.95123H40.953V13.6046H39.1049Z" fill="#221684"/>
<path d="M5.93774 35.3483C4.68192 35.3483 3.61245 35.0752 2.729 34.5298C1.84522 33.9838 1.16966 33.2228 0.701994 32.2471C0.233672 31.2711 0 30.1391 0 28.8512C0 27.5632 0.233672 26.4313 0.701994 25.4553C1.16966 24.4793 1.84522 23.7186 2.729 23.1725C3.61245 22.6268 4.68192 22.3541 5.93774 22.3541C7.38513 22.3541 8.58351 22.7179 9.53452 23.4452C10.4845 24.1732 11.1457 25.1524 11.5181 26.3823L9.6693 26.8758C9.42552 26.0039 8.99048 25.3197 8.36551 24.823C7.74053 24.3262 6.9315 24.0778 5.93774 24.0778C5.04809 24.0778 4.30693 24.2769 3.7146 24.6758C3.12128 25.0739 2.67515 25.6313 2.37588 26.3473C2.07661 27.0636 1.92681 27.8982 1.92681 28.8512C1.92061 29.8038 2.0678 30.6388 2.36707 31.3547C2.66666 32.071 3.1141 32.6278 3.71003 33.0266C4.30563 33.4251 5.04809 33.6242 5.93774 33.6242C6.9315 33.6242 7.74053 33.3745 8.36551 32.8749C8.99048 32.3755 9.42552 31.6929 9.6693 30.8265L11.5181 31.3201C11.1457 32.5503 10.4845 33.5292 9.53452 34.2568C8.58351 34.9845 7.38513 35.3483 5.93774 35.3483Z" fill="#F25924"/>
<path d="M13.6105 25.7325H15.4325V35.0886H13.6105V25.7325ZM13.6105 22.4407H15.4325V24.1994H13.6105V22.4407Z" fill="#F25924"/>
<path d="M20.5939 35.0884L17.1763 25.7323H19.0159L21.5184 32.8189L24.0209 25.7323H25.8606L22.4427 35.0884H20.5939Z" fill="#F25924"/>
<path d="M27.6041 25.7325H29.4268V35.0886H27.6041V25.7325ZM27.6041 22.4407H29.4268V24.1994H27.6041V22.4407Z" fill="#F25924"/>
<path d="M32.2164 22.3541H34.0388V35.0883H32.2164V22.3541Z" fill="#F25924"/>
<path d="M41.9645 28.8946H45.1471C45.2626 28.8946 45.3922 28.8888 45.5345 28.8771C45.6768 28.8657 45.8125 28.8456 45.9401 28.8164C46.3119 28.7295 46.6115 28.5697 46.8383 28.3356C47.0651 28.1018 47.2276 27.832 47.3268 27.5256C47.4254 27.2198 47.4747 26.9137 47.4747 26.6073C47.4747 26.3015 47.4254 25.9967 47.3268 25.6935C47.2276 25.3904 47.0651 25.1216 46.8383 24.8881C46.6115 24.6543 46.3119 24.4938 45.9401 24.4069C45.8125 24.3725 45.6768 24.3495 45.5345 24.3375C45.3922 24.3262 45.2626 24.3207 45.1471 24.3207H41.9645V28.8946ZM40.1421 35.0885V22.6141H45.2166C45.3383 22.6141 45.4898 22.6186 45.6699 22.6267C45.8497 22.6355 46.0217 22.6543 46.1846 22.6835C46.8817 22.7931 47.4645 23.0298 47.9322 23.3936C48.4002 23.7574 48.7504 24.2166 48.9834 24.7707C49.2158 25.3255 49.332 25.9377 49.332 26.6073C49.332 27.283 49.2158 27.8985 48.9834 28.4526C48.7504 29.0074 48.4002 29.4663 47.9322 29.8304C47.4645 30.1939 46.8817 30.4309 46.1846 30.5405C46.0217 30.5632 45.8484 30.5807 45.6653 30.5921C45.4823 30.6041 45.3328 30.6099 45.2166 30.6099H41.9645V35.0885H40.1421Z" fill="#F25924"/>
<path d="M51.076 35.0884V25.7323H52.6977V28.0021L52.4709 27.7077C52.5868 27.4074 52.7382 27.1315 52.9239 26.8805C53.1099 26.6289 53.3253 26.4224 53.5694 26.2609C53.8073 26.0874 54.074 25.9535 54.3674 25.8582C54.6604 25.7625 54.9613 25.7054 55.2697 25.685C55.5778 25.6649 55.8741 25.6805 56.1587 25.7323V27.4305C55.851 27.3497 55.5093 27.3267 55.1346 27.3614C54.7596 27.3958 54.415 27.5144 54.101 27.7165C53.8047 27.9068 53.571 28.1377 53.3994 28.4091C53.2277 28.6811 53.1047 28.9827 53.0286 29.3144C52.9532 29.6467 52.9154 29.9979 52.9154 30.3672V35.0884H51.076Z" fill="#F25924"/>
<path d="M61.7301 33.6418C62.6315 33.6418 63.3045 33.34 63.7493 32.7362C64.1934 32.1331 64.416 31.3545 64.416 30.4019C64.416 29.4259 64.1905 28.6447 63.7401 28.0582C63.2894 27.4722 62.6201 27.1791 61.7301 27.1791C61.1198 27.1791 60.6172 27.3166 60.222 27.5906C59.8271 27.8652 59.5334 28.2436 59.3415 28.7258C59.1499 29.2077 59.054 29.7667 59.054 30.4019C59.054 31.3837 59.2808 32.1691 59.7338 32.7579C60.1871 33.3471 60.8529 33.6418 61.7301 33.6418ZM61.7301 35.3484C60.7889 35.3484 59.972 35.1373 59.2808 34.7161C58.5886 34.2942 58.0553 33.7125 57.6807 32.9706C57.3054 32.2284 57.118 31.3717 57.118 30.4019C57.118 29.4259 57.3099 28.5666 57.6937 27.8247C58.0772 27.0825 58.6147 26.505 59.3066 26.0919C59.9981 25.6788 60.8065 25.4729 61.7301 25.4729C62.6723 25.4729 63.4892 25.6833 64.1804 26.1052C64.8726 26.5267 65.4072 27.1071 65.7848 27.8461C66.1627 28.5854 66.3513 29.4372 66.3513 30.4019C66.3513 31.3782 66.161 32.2368 65.7805 32.9787C65.3997 33.721 64.8638 34.3017 64.1713 34.7203C63.48 35.1389 62.6661 35.3484 61.7301 35.3484Z" fill="#F25924"/>
<path d="M73.6584 35.0882C73.0651 35.2037 72.4838 35.253 71.9143 35.2354C71.3442 35.2183 70.8364 35.1083 70.3886 34.9063C69.9402 34.7043 69.6037 34.3865 69.3772 33.9533C69.1736 33.5668 69.0646 33.1725 69.0502 32.7711C69.0352 32.3697 69.028 31.9151 69.028 31.4066V23.1336H70.8592V31.3201C70.8592 31.6952 70.8635 32.0214 70.8723 32.299C70.8811 32.5762 70.9405 32.81 71.0508 33.0007C71.2603 33.359 71.5929 33.5623 72.0491 33.6113C72.5057 33.6605 73.0416 33.6417 73.6584 33.5548V35.0882ZM67.2233 25.7322H73.6584V27.1878H67.2233V25.7322Z" fill="#F25924"/>
<path d="M76.0207 29.5093H82.7434V30.9211H76.0207V29.5093ZM79.3776 35.3482C78.4416 35.3482 77.6205 35.1445 76.9143 34.7376C76.2087 34.3306 75.6588 33.7616 75.2665 33.031C74.8742 32.3005 74.6781 31.4532 74.6781 30.4882C74.6781 29.4662 74.8713 28.5797 75.2577 27.829C75.6444 27.078 76.1836 26.4976 76.8755 26.0874C77.567 25.6776 78.3721 25.4727 79.2902 25.4727C80.2493 25.4727 81.0662 25.6935 81.7405 26.1351C82.415 26.5771 82.9186 27.2051 83.2534 28.0193C83.5876 28.8339 83.7201 29.8011 83.65 30.9214H81.8276V30.2635C81.8161 29.1773 81.6083 28.3744 81.2046 27.855C80.8002 27.3348 80.1854 27.0754 79.3604 27.0754C78.4475 27.0754 77.7618 27.3611 77.3023 27.9328C76.8435 28.5048 76.6137 29.3306 76.6137 30.4104C76.6137 31.4386 76.8435 32.234 77.3023 32.7972C77.7618 33.3601 78.4244 33.6419 79.2902 33.6419C79.8603 33.6419 80.3528 33.5132 80.7686 33.2561C81.184 32.9993 81.5081 32.6309 81.7405 32.1517L83.5279 32.7146C83.1621 33.5521 82.6066 34.2003 81.8622 34.6598C81.1184 35.1186 80.2905 35.3482 79.3776 35.3482" fill="#F25924"/>
<path d="M89.631 35.3483C88.6667 35.3483 87.8472 35.1346 87.1729 34.7069C86.4983 34.2798 85.9827 33.6933 85.6253 32.9488C85.2677 32.2036 85.0855 31.3577 85.0803 30.4102C85.0855 29.4462 85.2719 28.5927 85.6384 27.8505C86.0046 27.1083 86.5277 26.5266 87.2075 26.1051C87.8873 25.6832 88.7042 25.4728 89.6578 25.4728C90.6861 25.4728 91.5657 25.7267 92.2951 26.2351C93.0245 26.7432 93.5055 27.439 93.7379 28.3226L91.9247 28.8424C91.7442 28.3168 91.4492 27.9086 91.0396 27.6167C90.63 27.3249 90.1604 27.1793 89.631 27.1793C89.0325 27.1793 88.5413 27.3191 88.1575 27.5996C87.7744 27.8797 87.4895 28.262 87.3035 28.7474C87.1178 29.2322 87.0215 29.787 87.0153 30.4102C87.0215 31.3748 87.2437 32.1544 87.683 32.7494C88.1216 33.3444 88.7708 33.6417 89.631 33.6417C90.2185 33.6417 90.694 33.5075 91.0569 33.2387C91.4198 32.9705 91.6978 32.585 91.8901 32.0827L93.7379 32.5159C93.4301 33.428 92.9214 34.1284 92.2122 34.6164C91.503 35.1044 90.6427 35.3483 89.631 35.3483Z" fill="#F25924"/>
<path d="M100.905 35.0882C100.312 35.2037 99.7309 35.253 99.1614 35.2354C98.5916 35.2183 98.0834 35.1083 97.6357 34.9063C97.1876 34.7043 96.8511 34.3865 96.6243 33.9533C96.4206 33.5668 96.3116 33.1725 96.2973 32.7711C96.2823 32.3697 96.2754 31.9151 96.2754 31.4066V23.1336H98.1066V31.3201C98.1066 31.6952 98.1108 32.0214 98.1193 32.299C98.1281 32.5762 98.1875 32.81 98.2978 33.0007C98.5077 33.359 98.8403 33.5623 99.2965 33.6113C99.7531 33.6605 100.289 33.6417 100.905 33.5548V35.0882ZM94.4703 25.7322H100.905V27.1878H94.4703V25.7322Z" fill="#F25924"/>
<path d="M103.058 25.7325H104.881V35.0886H103.058V25.7325ZM103.058 22.4407H104.881V24.1994H103.058V22.4407Z" fill="#F25924"/>
<path d="M111.586 33.6418C112.487 33.6418 113.159 33.34 113.604 32.7362C114.049 32.1331 114.271 31.3545 114.271 30.4019C114.271 29.4259 114.046 28.6447 113.595 28.0582C113.145 27.4722 112.475 27.1791 111.586 27.1791C110.975 27.1791 110.472 27.3166 110.078 27.5906C109.682 27.8652 109.388 28.2436 109.197 28.7258C109.005 29.2077 108.909 29.7667 108.909 30.4019C108.909 31.3837 109.135 32.1691 109.589 32.7579C110.042 33.3471 110.708 33.6418 111.586 33.6418ZM111.586 35.3484C110.644 35.3484 109.827 35.1373 109.135 34.7161C108.444 34.2942 107.911 33.7125 107.535 32.9706C107.161 32.2284 106.973 31.3717 106.973 30.4019C106.973 29.4259 107.165 28.5666 107.549 27.8247C107.932 27.0825 108.47 26.505 109.162 26.0919C109.853 25.6788 110.661 25.4729 111.586 25.4729C112.527 25.4729 113.344 25.6833 114.036 26.1052C114.727 26.5267 115.262 27.1071 115.64 27.8461C116.018 28.5854 116.207 29.4372 116.207 30.4019C116.207 31.3782 116.016 32.2368 115.636 32.9787C115.255 33.721 114.718 34.3017 114.027 34.7203C113.335 35.1389 112.522 35.3484 111.586 35.3484Z" fill="#F25924"/>
<path d="M124.734 35.0884V30.4882C124.734 30.1244 124.703 29.7508 124.642 29.3666C124.581 28.9827 124.465 28.6257 124.293 28.2969C124.122 27.9678 123.881 27.7022 123.57 27.4999C123.259 27.2978 122.853 27.1963 122.353 27.1963C122.028 27.1963 121.72 27.2499 121.429 27.3569C121.138 27.4639 120.884 27.6354 120.666 27.8721C120.448 28.1091 120.277 28.4211 120.152 28.8079C120.026 29.1947 119.965 29.6652 119.965 30.22L118.831 29.7956C118.831 28.9464 118.991 28.197 119.311 27.5475C119.63 26.8977 120.089 26.3909 120.688 26.0271C121.287 25.6633 122.01 25.481 122.859 25.481C123.51 25.481 124.057 25.5851 124.499 25.7933C124.94 26.0011 125.299 26.2738 125.575 26.6117C125.851 26.9496 126.062 27.3179 126.207 27.7165C126.353 28.115 126.451 28.5047 126.504 28.8857C126.556 29.267 126.582 29.602 126.582 29.8909V35.0884H124.734ZM118.116 35.0884V25.7323H119.747V28.4353H119.965V35.0884H118.116Z" fill="#F25924"/>
<path d="M0.69751 56.5724V44.0977H2.51956V49.919L7.77717 44.0977H10.0444L4.4901 50.1881L10.454 56.5724H8.11724L2.51956 50.6123V56.5724H0.69751Z" fill="#221684"/>
<path d="M18.2836 56.5724V51.9722C18.2836 51.6084 18.2525 51.2345 18.1922 50.8506C18.1308 50.4663 18.0143 50.1097 17.8433 49.7805C17.6716 49.4518 17.4308 49.1862 17.1194 48.9839C16.8084 48.7818 16.4028 48.6804 15.9034 48.6804C15.5777 48.6804 15.2696 48.7339 14.9789 48.8409C14.6881 48.9475 14.4342 49.1194 14.2162 49.3561C13.9982 49.5931 13.8265 49.9051 13.7018 50.2919C13.5765 50.6784 13.5142 51.1492 13.5142 51.7037L12.3807 51.2793C12.3807 50.4304 12.5403 49.681 12.8602 49.0312C13.18 48.3814 13.6392 47.8749 14.238 47.5111C14.8366 47.1473 15.5601 46.965 16.409 46.965C17.06 46.965 17.6064 47.0691 18.0479 47.277C18.4898 47.4848 18.8485 47.7578 19.1246 48.0954C19.401 48.4336 19.6115 48.8019 19.7571 49.2001C19.9023 49.5986 20.0015 49.9884 20.0534 50.3697C20.1056 50.751 20.132 51.086 20.132 51.3749V56.5724H18.2836ZM11.666 56.5724V47.2163H13.2962V49.919H13.5142V56.5724H11.666Z" fill="#221684"/>
<path d="M26.3752 55.126C27.2756 55.126 27.9485 54.8238 28.3934 54.2203C28.8382 53.6172 29.0604 52.8387 29.0604 51.8857C29.0604 50.9097 28.8346 50.1289 28.3846 49.5423C27.9342 48.9564 27.2642 48.6633 26.3752 48.6633C25.7649 48.6633 25.2617 48.8004 24.8661 49.0747C24.4712 49.3494 24.1778 49.7275 23.9859 50.2096C23.794 50.6918 23.6981 51.2505 23.6981 51.8857C23.6981 52.8679 23.9249 53.6532 24.3782 54.2417C24.8315 54.8312 25.4973 55.126 26.3752 55.126ZM26.3752 56.8325C25.433 56.8325 24.6161 56.6214 23.9249 56.2002C23.2327 55.7784 22.6997 55.1967 22.3248 54.4544C21.9501 53.7125 21.7625 52.8559 21.7625 51.8857C21.7625 50.9097 21.954 50.0507 22.3378 49.3085C22.7216 48.5666 23.2595 47.9891 23.9507 47.576C24.6426 47.1629 25.4506 46.9567 26.3752 46.9567C27.3164 46.9567 28.1333 47.1675 28.8248 47.5893C29.5167 48.0109 30.0516 48.5913 30.4295 49.3302C30.8068 50.0695 30.9961 50.9214 30.9961 51.8857C30.9961 52.862 30.8055 53.721 30.4246 54.4629C30.0438 55.2051 29.5079 55.7858 28.8163 56.2041C28.1241 56.6227 27.3105 56.8325 26.3752 56.8325Z" fill="#221684"/>
<path d="M34.5711 56.5724L31.694 47.2076L33.4984 47.2163L35.4693 53.6353L37.4571 47.2163H39.0266L41.0141 53.6353L42.9849 47.2163H44.7812L41.904 56.5724H40.439L38.242 49.7981L36.0358 56.5724H34.5711Z" fill="#221684"/>
<path d="M46.5249 43.8383H48.3473V56.5724H46.5249V43.8383Z" fill="#221684"/>
<path d="M51.7823 50.9932H58.505V52.4053H51.7823V50.9932ZM55.1392 56.8324C54.2032 56.8324 53.3828 56.6287 52.6762 56.2215C51.9697 55.8142 51.4207 55.2458 51.0284 54.5152C50.6362 53.7847 50.4397 52.9371 50.4397 51.9724C50.4397 50.9504 50.6326 50.0639 51.0193 49.3129C51.4057 48.5623 51.9452 47.9815 52.6364 47.5717C53.3289 47.1618 54.1334 46.9565 55.0521 46.9565C56.0109 46.9565 56.8278 47.1777 57.5024 47.6193C58.1763 48.061 58.6809 48.6894 59.0147 49.5036C59.3489 50.3178 59.4811 51.285 59.4116 52.4056H57.5895V51.7474C57.5774 50.6615 57.3696 49.8586 56.9659 49.3392C56.5615 48.8191 55.9473 48.559 55.1216 48.559C54.2091 48.559 53.5231 48.845 53.0639 49.4167C52.6047 49.9886 52.375 50.8148 52.375 51.8946C52.375 52.9228 52.6047 53.7182 53.0639 54.2811C53.5231 54.8444 54.1856 55.1258 55.0521 55.1258C55.6216 55.1258 56.1141 54.9974 56.5299 54.74C56.9456 54.4831 57.2694 54.1151 57.5024 53.6355L59.2895 54.1988C58.923 55.036 58.3682 55.6845 57.6244 56.1437C56.88 56.6025 56.0517 56.8324 55.1392 56.8324" fill="#221684"/>
<path d="M67.9124 56.5725V49.8416H67.7025V44.0977H69.5337V56.5725H67.9124ZM65.3573 55.195C65.9562 55.195 66.4447 55.0533 66.8226 54.7706C67.1999 54.4875 67.4767 54.0978 67.6509 53.601C67.8252 53.1046 67.9124 52.5329 67.9124 51.8857C67.9124 51.2391 67.8236 50.6671 67.6464 50.1704C67.4692 49.6743 67.196 49.2868 66.8269 49.0099C66.4575 48.7326 65.9882 48.5939 65.4187 48.5939C64.8139 48.5939 64.3172 48.7411 63.9275 49.0358C63.5382 49.3302 63.249 49.7258 63.0598 50.2226C62.8711 50.7193 62.7765 51.2735 62.7765 51.8857C62.7765 52.504 62.8711 53.0627 63.0598 53.5621C63.249 54.0618 63.534 54.4583 63.9148 54.7534C64.2953 55.0478 64.7764 55.195 65.3573 55.195V55.195ZM65.1047 56.8325C64.2268 56.8325 63.47 56.6159 62.8336 56.1827C62.1965 55.7495 61.7054 55.159 61.3598 54.4113C61.0142 53.6633 60.8412 52.8215 60.8412 51.8857C60.8412 50.9447 61.0155 50.1029 61.3647 49.3607C61.7132 48.6185 62.2083 48.0326 62.8506 47.602C63.4932 47.172 64.2559 46.9567 65.1396 46.9567C66.0289 46.9567 66.777 47.172 67.3846 47.602C67.9923 48.0326 68.4512 48.6201 68.7625 49.3649C69.0732 50.1097 69.2285 50.9502 69.2285 51.8857C69.2285 52.8215 69.0719 53.6616 68.7579 54.4068C68.444 55.1516 67.9819 55.7424 67.3716 56.1782C66.7613 56.6143 66.0058 56.8325 65.1047 56.8325" fill="#221684"/>
<path d="M75.9686 55.195C76.5675 55.195 77.0561 55.0533 77.434 54.7705C77.8113 54.4875 78.088 54.0977 78.2623 53.601C78.4366 53.1045 78.5237 52.5329 78.5237 51.8857C78.5237 51.2391 78.4346 50.6671 78.2577 50.1703C78.0805 49.6742 77.8073 49.2868 77.4382 49.0098C77.0688 48.7326 76.5998 48.5938 76.03 48.5938C75.4253 48.5938 74.9285 48.741 74.5389 49.0358C74.1495 49.3302 73.8604 49.7258 73.6711 50.2226C73.4825 50.7193 73.3878 51.2735 73.3878 51.8857C73.3878 52.504 73.4825 53.0627 73.6711 53.5621C73.8604 54.0617 74.1453 54.4586 74.5261 54.7534C74.9067 55.0478 75.3877 55.195 75.9686 55.195ZM75.8557 60.9907C75.3499 60.9907 74.86 60.9126 74.3861 60.7566C73.9123 60.6006 73.4812 60.3711 73.0915 60.0676C72.7018 59.7647 72.3797 59.3905 72.1235 58.946L73.8069 58.0968C74.0098 58.4956 74.3006 58.7874 74.6786 58.9719C75.0558 59.1567 75.4546 59.2492 75.8727 59.2492C76.3903 59.2492 76.8319 59.1584 77.1984 58.9765C77.5649 58.7945 77.8419 58.5218 78.0306 58.158C78.2199 57.7939 78.3116 57.3435 78.306 56.8065V54.1901H78.5237V47.2167H80.1369V56.8234C80.1369 57.0721 80.1281 57.3091 80.1101 57.5338C80.0935 57.7592 80.0612 57.9849 80.0142 58.2096C79.8807 58.839 79.6268 59.3587 79.2515 59.7689C78.8768 60.1791 78.3997 60.4849 77.8217 60.6872C77.2431 60.8896 76.5877 60.9907 75.8557 60.9907V60.9907ZM75.716 56.8325C74.8378 56.8325 74.0813 56.6159 73.4453 56.1827C72.8079 55.7495 72.317 55.159 71.9711 54.4113C71.6255 53.6632 71.4525 52.8215 71.4525 51.8857C71.4525 50.9447 71.6268 50.1029 71.976 49.3607C72.3245 48.6185 72.82 48.0325 73.4619 47.6019C74.1045 47.172 74.8672 46.9567 75.7506 46.9567C76.6406 46.9567 77.3886 47.172 77.996 47.6019C78.6037 48.0325 79.0625 48.6201 79.3742 49.3652C79.6845 50.1097 79.8399 50.9502 79.8399 51.8857C79.8399 52.8215 79.6832 53.6616 79.3693 54.4067C79.0553 55.1515 78.5932 55.7423 77.9829 56.1781C77.3726 56.6143 76.6171 56.8325 75.716 56.8325Z" fill="#221684"/>
<path d="M83.3971 50.9932H90.1197V52.4053H83.3971V50.9932ZM86.7537 56.8324C85.818 56.8324 84.9972 56.6287 84.291 56.2215C83.5851 55.8142 83.0355 55.2458 82.6432 54.5152C82.2509 53.7847 82.0544 52.9371 82.0544 51.9724C82.0544 50.9504 82.248 50.0639 82.6341 49.3129C83.0211 48.5623 83.5599 47.9815 84.2518 47.5717C84.9434 47.1618 85.7485 46.9565 86.6668 46.9565C87.6257 46.9565 88.4425 47.1777 89.1171 47.6193C89.7914 48.061 90.2953 48.6894 90.6298 49.5036C90.9643 50.3178 91.0965 51.285 91.0263 52.4056H89.2039V51.7474C89.1926 50.6615 88.9846 49.8586 88.5809 49.3392C88.1769 48.8191 87.5617 48.559 86.737 48.559C85.8242 48.559 85.1382 48.845 84.679 49.4167C84.2202 49.9886 83.9904 50.8148 83.9904 51.8946C83.9904 52.9228 84.2202 53.7182 84.679 54.2811C85.1382 54.8444 85.801 55.1258 86.6668 55.1258C87.237 55.1258 87.7295 54.9974 88.1449 54.74C88.5607 54.4831 88.8848 54.1151 89.1171 53.6355L90.9042 54.1988C90.5384 55.036 89.9833 55.6845 89.2389 56.1437C88.4948 56.6025 87.6665 56.8324 86.7537 56.8324" fill="#221684"/>
<path d="M96.4674 56.5724V44.0977H98.3156L104.498 53.3671V44.0977H106.346V56.5724H104.498L98.3156 47.2945V56.5724H96.4674Z" fill="#221684"/>
<path d="M109.607 50.9932H116.329V52.4053H109.607V50.9932ZM112.964 56.8324C112.028 56.8324 111.207 56.6287 110.5 56.2215C109.795 55.8142 109.245 55.2458 108.853 54.5152C108.46 53.7847 108.264 52.9371 108.264 51.9724C108.264 50.9504 108.457 50.0639 108.844 49.3129C109.231 48.5623 109.77 47.9815 110.462 47.5717C111.153 47.1618 111.958 46.9565 112.876 46.9565C113.835 46.9565 114.652 47.1777 115.327 47.6193C116.001 48.061 116.505 48.6894 116.84 49.5036C117.174 50.3178 117.306 51.285 117.236 52.4056H115.414V51.7474C115.402 50.6615 115.194 49.8586 114.791 49.3392C114.386 48.8191 113.771 48.559 112.946 48.559C112.034 48.559 111.348 48.845 110.889 49.4167C110.43 49.9886 110.2 50.8148 110.2 51.8946C110.2 52.9228 110.43 53.7182 110.889 54.2811C111.348 54.8444 112.011 55.1258 112.876 55.1258C113.446 55.1258 113.939 54.9974 114.355 54.74C114.77 54.4831 115.094 54.1151 115.327 53.6355L117.114 54.1988C116.748 55.036 116.193 55.6845 115.449 56.1437C114.705 56.6025 113.877 56.8324 112.964 56.8324" fill="#221684"/>
<path d="M124.578 56.5725C123.985 56.6879 123.403 56.7372 122.834 56.7197C122.264 56.7025 121.756 56.5926 121.308 56.3903C120.86 56.1882 120.523 55.8708 120.296 55.4376C120.093 55.0508 119.984 54.6565 119.969 54.2554C119.955 53.8539 119.947 53.399 119.947 52.8909V44.6179H121.779V52.8043C121.779 53.1795 121.783 53.5057 121.792 53.7829C121.8 54.0602 121.86 54.2943 121.971 54.4849C122.18 54.8429 122.513 55.0465 122.969 55.0955C123.425 55.1445 123.962 55.126 124.578 55.0391V56.5725ZM118.143 47.2164H124.578V48.6717H118.143V47.2164Z" fill="#221684"/>
<path d="M128.562 56.5724L125.685 47.2076L127.49 47.2163L129.46 53.6353L131.448 47.2163H133.017L135.005 53.6353L136.976 47.2163H138.772L135.895 56.5724H134.43L132.233 49.7981L130.027 56.5724H128.562Z" fill="#221684"/>
<path d="M144.082 55.126C144.983 55.126 145.655 54.8238 146.1 54.2203C146.545 53.6172 146.767 52.8387 146.767 51.8857C146.767 50.9097 146.542 50.1289 146.091 49.5423C145.641 48.9564 144.972 48.6633 144.082 48.6633C143.471 48.6633 142.969 48.8004 142.574 49.0747C142.178 49.3494 141.884 49.7275 141.693 50.2096C141.501 50.6918 141.405 51.2505 141.405 51.8857C141.405 52.8679 141.631 53.6532 142.085 54.2417C142.538 54.8312 143.204 55.126 144.082 55.126ZM144.082 56.8325C143.14 56.8325 142.324 56.6214 141.631 56.2002C140.94 55.7784 140.407 55.1967 140.032 54.4544C139.657 53.7125 139.47 52.8559 139.47 51.8857C139.47 50.9097 139.661 50.0507 140.045 49.3085C140.429 48.5666 140.966 47.9891 141.658 47.576C142.349 47.1629 143.157 46.9567 144.082 46.9567C145.023 46.9567 145.84 47.1675 146.532 47.5893C147.224 48.0109 147.758 48.5913 148.136 49.3302C148.514 50.0695 148.703 50.9214 148.703 51.8857C148.703 52.862 148.512 53.721 148.132 54.4629C147.751 55.2051 147.215 55.7858 146.523 56.2041C145.831 56.6227 145.018 56.8325 144.082 56.8325Z" fill="#221684"/>
<path d="M150.621 56.5724V47.2163H152.243V49.4861L152.016 49.1917C152.132 48.8914 152.283 48.6155 152.469 48.3645C152.655 48.1129 152.87 47.9064 153.115 47.7446C153.352 47.5714 153.619 47.4375 153.912 47.3422C154.206 47.2465 154.506 47.1891 154.815 47.1687C155.123 47.1486 155.419 47.1641 155.704 47.2163V48.9141C155.396 48.8337 155.055 48.8104 154.679 48.8451C154.305 48.8794 153.96 48.9984 153.646 49.2001C153.35 49.3908 153.116 49.6217 152.945 49.8931C152.773 50.1648 152.649 50.4663 152.574 50.7984C152.498 51.1307 152.461 51.4816 152.461 51.8509V56.5724H150.621Z" fill="#221684"/>
<path d="M157.352 56.5724L157.36 44.0977H159.208V51.7212L162.906 47.2163H165.225L161.319 51.8944L165.626 56.5724H163.15L159.208 52.0675V56.5724H157.352Z" fill="#221684"/>
</svg>
