<svg width="173" height="61" viewBox="0 0 173 61" fill="none" xmlns="http://www.w3.org/2000/svg">
<path d="M8.5776 55.4742V49.9108L13.4771 55.4742H16.4133L10.9505 49.2832L16.0889 43.2621H13.2551L8.5776 48.8932V43.2621H6.25586V55.4742H8.5776ZM25.8196 55.4742V50.335C25.8196 50.1822 25.8082 49.939 25.7854 49.6056C25.7627 49.2719 25.6972 48.9036 25.5891 48.4982C25.481 48.0951 25.2999 47.7058 25.0466 47.3328C24.7934 46.9596 24.4396 46.6515 23.9844 46.4082C23.5291 46.1653 22.9402 46.0438 22.2175 46.0438C21.3128 46.0438 20.5626 46.2387 19.9679 46.6287C19.3732 47.0191 18.9284 47.5306 18.6326 48.1638C18.3367 48.7971 18.1887 49.4756 18.1887 50.1993L19.5203 50.8268C19.5203 50.2556 19.5838 49.7979 19.7118 49.4529C19.8399 49.1081 20.004 48.8462 20.2032 48.668C20.4022 48.4908 20.6156 48.3703 20.8433 48.308C21.0709 48.2457 21.2843 48.2147 21.4835 48.2147C21.9786 48.2147 22.3607 48.3251 22.631 48.5456C22.9013 48.7661 23.0967 49.0403 23.2162 49.368C23.3357 49.696 23.4069 50.023 23.4296 50.3471C23.4523 50.6731 23.4638 50.9398 23.4638 51.1489V55.4742H25.8196ZM19.5203 55.4742V49.3512H19.2301V46.3149H17.1644V55.4742H19.5203ZM34.0262 55.1132C34.7288 54.7042 35.278 54.1361 35.6734 53.4087C36.0691 52.683 36.2671 51.8445 36.2671 50.8946C36.2671 49.9504 36.0709 49.1155 35.6784 48.3882C35.2855 47.6626 34.7374 47.0925 34.0347 46.6796C33.3318 46.2672 32.5173 46.0606 31.5896 46.0606C30.6793 46.0606 29.8739 46.2642 29.1741 46.6713C28.4743 47.0782 27.9251 47.6456 27.5268 48.3711C27.1283 49.0987 26.9293 49.939 26.9293 50.8946C26.9293 51.8388 27.1236 52.6747 27.5136 53.4002C27.9033 54.1276 28.4485 54.6968 29.1486 55.1095C29.8484 55.5223 30.6622 55.7286 31.5896 55.7286C32.5116 55.7286 33.3235 55.5231 34.0262 55.1132ZM29.9462 52.8489C29.5734 52.3655 29.3874 51.7145 29.3874 50.8946C29.3874 50.3632 29.4652 49.8966 29.6218 49.4952C29.7782 49.0938 30.0191 48.78 30.3435 48.5538C30.6679 48.3277 31.0833 48.2147 31.5896 48.2147C32.3237 48.2147 32.8766 48.458 33.2493 48.9441C33.6221 49.4304 33.8089 50.0804 33.8089 50.8946C33.8089 51.6806 33.625 52.3232 33.2579 52.8236C32.8909 53.3237 32.3352 53.5744 31.5896 53.5744C30.8669 53.5744 30.3188 53.3323 29.9462 52.8489ZM41.1155 55.4742L43.1299 49.5037L45.1442 55.4742H46.9197L49.7364 46.3149H47.466L45.793 51.7765L44.0945 46.3149H42.1655L40.4667 51.7765L38.7937 46.3149L36.5233 46.2982L39.34 55.4742H41.1155ZM53.3384 43.0075H51.0168V55.4742H53.3384V43.0075ZM62.2108 55.0333C62.959 54.5696 63.5074 53.9195 63.8545 53.0826L61.5326 52.4212C61.362 52.7944 61.1146 53.0797 60.7902 53.2777C60.4658 53.4755 60.0761 53.5744 59.6208 53.5744C58.8981 53.5744 58.35 53.3408 57.9772 52.8753C57.6044 52.408 57.4186 51.7483 57.4186 50.8946C57.4186 49.9617 57.6044 49.2569 57.9772 48.7792C58.35 48.3013 58.9322 48.0619 59.7233 48.0619C60.4002 48.0619 60.8877 48.2674 61.1866 48.6763C61.4853 49.0874 61.6351 49.7583 61.6351 50.6912V51.5392H63.9312C64.028 50.4309 63.9143 49.467 63.5899 48.6472C63.2655 47.8275 62.7647 47.1914 62.0875 46.7391C61.4104 46.2868 60.588 46.0606 59.6208 46.0606C58.7103 46.0606 57.9051 46.2661 57.205 46.675C56.5052 47.086 55.9561 47.6605 55.5578 48.4013C55.1595 49.1419 54.9602 50.0127 54.9602 51.0132C54.9602 51.9293 55.1634 52.7425 55.57 53.4519C55.9769 54.1615 56.5403 54.7185 57.2602 55.1216C57.98 55.5259 58.8128 55.7286 59.7574 55.7286C60.645 55.7286 61.4627 55.4967 62.2108 55.0333ZM62.8131 49.826H56.7016V51.5392H62.8131V49.826ZM71.4587 55.0925C72.0734 54.6686 72.5362 54.0919 72.8463 53.3625C73.1564 52.6331 73.3109 51.8106 73.3109 50.8946C73.3109 49.9788 73.1575 49.1561 72.85 48.4267C72.5427 47.6976 72.0903 47.1206 71.493 46.6967C70.8954 46.2725 70.1584 46.0606 69.2822 46.0606C68.4001 46.0606 67.6319 46.2697 66.9776 46.6882C66.323 47.1066 65.8158 47.6794 65.4544 48.4049C65.0931 49.1326 64.912 49.9617 64.912 50.8946C64.912 51.8106 65.0902 52.6331 65.4458 53.3625C65.8014 54.0919 66.2975 54.6686 66.9349 55.0925C67.5723 55.5166 68.3148 55.7286 69.1626 55.7286C70.0788 55.7286 70.8442 55.5166 71.4587 55.0925ZM68.309 53.303C67.9903 53.0545 67.7544 52.7199 67.6006 52.2976C67.4469 51.8773 67.3701 51.4092 67.3701 50.8946C67.3701 50.3857 67.4498 49.9212 67.6092 49.5001C67.7684 49.0788 68.0151 48.7426 68.3481 48.4908C68.6808 48.2393 69.1059 48.1128 69.6236 48.1128C70.1072 48.1128 70.499 48.2289 70.7976 48.4606C71.0965 48.6924 71.3138 49.0175 71.4501 49.436C71.5867 49.8542 71.6551 50.3405 71.6551 50.8946C71.6551 51.4488 71.5867 51.9349 71.4501 52.3531C71.3138 52.7716 71.0908 53.0967 70.7807 53.3287C70.4706 53.5605 70.0559 53.6763 69.5382 53.6763C69.0375 53.6763 68.6277 53.552 68.309 53.303ZM73.7035 55.4742V43.2621H71.3648V49.1984H71.6551V55.4742H73.7035ZM81.4966 59.5318C82.077 59.3536 82.5684 59.0841 82.9695 58.7222C83.3707 58.3603 83.6449 57.8997 83.7927 57.3399C83.8439 57.1419 83.8801 56.9424 83.8998 56.7415C83.9199 56.5409 83.9292 56.328 83.9292 56.1018V46.3149H81.8977V53.4049H81.6077V56.0677C81.6191 56.4071 81.5327 56.6906 81.3478 56.9207C81.1628 57.1486 80.9162 57.321 80.6089 57.4371C80.3017 57.5529 79.9744 57.6113 79.6274 57.6113C79.303 57.6113 79.0033 57.5407 78.7273 57.3993C78.4512 57.258 78.239 57.0514 78.0909 56.7803L75.94 57.8147C76.1734 58.2107 76.4767 58.5565 76.8495 58.8533C77.2223 59.15 77.6443 59.3818 78.1164 59.5486C78.5889 59.7155 79.0868 59.7993 79.6102 59.7993C80.2874 59.7993 80.9162 59.7099 81.4966 59.5318ZM81.7016 55.0925C82.316 54.6686 82.7788 54.0919 83.089 53.3625C83.399 52.6331 83.5538 51.8106 83.5538 50.8946C83.5538 49.9788 83.4001 49.1561 83.0929 48.4267C82.7856 47.6976 82.3332 47.1206 81.7357 46.6967C81.1381 46.2725 80.4013 46.0606 79.5249 46.0606C78.643 46.0606 77.8748 46.2697 77.2202 46.6882C76.5659 47.1066 76.0584 47.6794 75.697 48.4049C75.336 49.1326 75.1546 49.9617 75.1546 50.8946C75.1546 51.8106 75.3331 52.6331 75.6887 53.3625C76.0443 54.0919 76.5402 54.6686 77.1776 55.0925C77.8149 55.5166 78.5577 55.7286 79.4055 55.7286C80.3215 55.7286 81.0868 55.5166 81.7016 55.0925ZM78.5519 53.303C78.2332 53.0545 77.997 52.7199 77.8433 52.2976C77.6898 51.8773 77.613 51.4092 77.613 50.8946C77.613 50.3857 77.6927 49.9212 77.8519 49.5001C78.0113 49.0788 78.258 48.7426 78.5907 48.4908C78.9237 48.2393 79.3485 48.1128 79.8665 48.1128C80.3501 48.1128 80.7416 48.2289 81.0405 48.4606C81.3392 48.6924 81.5564 49.0175 81.693 49.436C81.8296 49.8542 81.8977 50.3405 81.8977 50.8946C81.8977 51.4488 81.8296 51.9349 81.693 52.3531C81.5564 52.7716 81.3335 53.0967 81.0234 53.3287C80.7133 53.5605 80.2988 53.6763 79.7809 53.6763C79.2803 53.6763 78.8706 53.552 78.5519 53.303ZM92.6318 55.0333C93.3802 54.5696 93.9273 53.9195 94.2746 53.0826L91.9528 52.4212C91.7821 52.7944 91.5345 53.0797 91.2103 53.2777C90.8859 53.4755 90.4962 53.5744 90.041 53.5744C89.3183 53.5744 88.7709 53.3408 88.3981 52.8753C88.0256 52.408 87.8388 51.7483 87.8388 50.8946C87.8388 49.9617 88.0256 49.2569 88.3981 48.7792C88.7709 48.3013 89.3523 48.0619 90.1432 48.0619C90.8204 48.0619 91.3089 48.2674 91.6076 48.6763C91.9062 49.0874 92.0553 49.7583 92.0553 50.6912V51.5392H94.3514C94.4482 50.4309 94.3342 49.467 94.0098 48.6472C93.6857 47.8275 93.1849 47.1914 92.5077 46.7391C91.8305 46.2868 91.0082 46.0606 90.041 46.0606C89.1304 46.0606 88.3253 46.2661 87.6252 46.675C86.9254 47.086 86.3762 47.6605 85.9779 48.4013C85.5796 49.1419 85.3804 50.0127 85.3804 51.0132C85.3804 51.9293 85.5843 52.7425 85.9912 53.4519C86.3981 54.1615 86.9613 54.7185 87.6811 55.1216C88.401 55.5259 89.2329 55.7286 90.1775 55.7286C91.0652 55.7286 91.8836 55.4967 92.6318 55.0333ZM93.2333 49.826H87.1215V51.5392H93.2333V49.826ZM101.188 55.4742V47.3328L106.532 55.4742H108.888V43.2621H106.532V51.4035L101.188 43.2621H98.8325V55.4742H101.188ZM117.589 55.0333C118.338 54.5696 118.886 53.9195 119.233 53.0826L116.911 52.4212C116.74 52.7944 116.493 53.0797 116.168 53.2777C115.844 53.4755 115.454 53.5744 114.999 53.5744C114.276 53.5744 113.728 53.3408 113.356 52.8753C112.983 52.408 112.797 51.7483 112.797 50.8946C112.797 49.9617 112.983 49.2569 113.356 48.7792C113.728 48.3013 114.311 48.0619 115.102 48.0619C115.779 48.0619 116.266 48.2674 116.565 48.6763C116.864 49.0874 117.014 49.7583 117.014 50.6912V51.5392H119.31C119.406 50.4309 119.293 49.467 118.968 48.6472C118.644 47.8275 118.143 47.1914 117.466 46.7391C116.789 46.2868 115.966 46.0606 114.999 46.0606C114.089 46.0606 113.283 46.2661 112.583 46.675C111.884 47.086 111.335 47.6605 110.936 48.4013C110.538 49.1419 110.339 50.0127 110.339 51.0132C110.339 51.9293 110.542 52.7425 110.948 53.4519C111.355 54.1615 111.919 54.7185 112.638 55.1216C113.358 55.5259 114.191 55.7286 115.136 55.7286C116.023 55.7286 116.841 55.4967 117.589 55.0333ZM118.191 49.826H112.08V51.5392H118.191V49.826ZM126.335 53.5577C125.788 53.6311 125.289 53.6536 124.841 53.6254C124.39 53.5973 124.064 53.422 123.859 53.0997C123.75 52.9301 123.692 52.7029 123.684 52.4165C123.675 52.1319 123.671 51.8106 123.671 51.4544V43.7708H121.35V51.5901C121.35 52.1384 121.354 52.6285 121.367 53.0609C121.377 53.4936 121.496 53.9195 121.725 54.3377C121.975 54.7844 122.341 55.1085 122.821 55.3083C123.302 55.5091 123.849 55.6164 124.46 55.6306C125.072 55.6448 125.696 55.5929 126.335 55.4742V53.5577ZM126.335 46.3149H119.779V48.0961H126.335V46.3149ZM131.694 55.4742L133.708 49.5037L135.723 55.4742H137.498L140.315 46.3149H138.044L136.371 51.7765L134.673 46.3149H132.744L131.045 51.7765L129.372 46.3149L127.102 46.2982L129.918 55.4742H131.694ZM147.669 55.1132C148.372 54.7042 148.921 54.1361 149.316 53.4087C149.712 52.683 149.909 51.8445 149.909 50.8946C149.909 49.9504 149.713 49.1155 149.32 48.3882C148.927 47.6626 148.38 47.0925 147.677 46.6796C146.975 46.2672 146.159 46.0606 145.231 46.0606C144.321 46.0606 143.516 46.2642 142.816 46.6713C142.116 47.0782 141.567 47.6456 141.169 48.3711C140.77 49.0987 140.571 49.939 140.571 50.8946C140.571 51.8388 140.766 52.6747 141.156 53.4002C141.546 54.1276 142.09 54.6968 142.79 55.1095C143.49 55.5223 144.304 55.7286 145.231 55.7286C146.153 55.7286 146.966 55.5231 147.669 55.1132ZM143.589 52.8489C143.216 52.3655 143.029 51.7145 143.029 50.8946C143.029 50.3632 143.108 49.8966 143.264 49.4952C143.421 49.0938 143.661 48.78 143.985 48.5538C144.31 48.3277 144.725 48.2147 145.231 48.2147C145.965 48.2147 146.519 48.458 146.892 48.9441C147.265 49.4304 147.451 50.0804 147.451 50.8946C147.451 51.6806 147.268 52.3232 146.901 52.8236C146.534 53.3237 145.977 53.5744 145.231 53.5744C144.509 53.5744 143.962 53.3323 143.589 52.8489ZM153.699 55.4742V50.7928C153.699 50.4422 153.747 50.1277 153.844 49.8467C153.941 49.5668 154.083 49.3249 154.271 49.1184C154.458 48.9121 154.689 48.7461 154.962 48.6218C155.235 48.4918 155.542 48.4135 155.88 48.3882C156.219 48.3625 156.516 48.39 156.772 48.469V46.3149C156.493 46.2811 156.214 46.2746 155.935 46.2935C155.656 46.3141 155.386 46.3612 155.124 46.4375C154.862 46.5147 154.621 46.6205 154.399 46.7562C154.108 46.9257 153.864 47.1405 153.665 47.4005C153.465 47.6605 153.306 47.949 153.187 48.2656L153.409 48.5538V46.3149H151.36V55.4742H153.699ZM160.322 55.4742V51.0642L163.515 55.4742H166.536L162.986 50.8946L166.314 46.3149H163.447L160.322 50.725V43.2621H157.967L157.95 55.4742H160.322Z" fill="#2C3482"/>
<path d="M15.086 34.3317C16.0448 33.6364 16.721 32.695 17.1127 31.5076L14.7749 30.8632C14.5463 31.5981 14.1623 32.1721 13.6216 32.5847C13.081 32.9975 12.3849 33.204 11.5314 33.204C10.7508 33.204 10.1012 33.0313 9.58046 32.6865C9.05985 32.3417 8.66809 31.8555 8.40734 31.2279C8.14454 30.6004 8.01467 29.8624 8.01467 29.0144C8.01467 28.1663 8.14454 27.4286 8.40734 26.801C8.66809 26.1735 9.05985 25.687 9.58046 25.3422C10.1012 24.9974 10.7508 24.825 11.5314 24.825C12.3849 24.825 13.081 25.0302 13.6216 25.4402C14.1623 25.8501 14.5463 26.425 14.7749 27.1655L17.1127 26.5211C16.721 25.3337 16.0448 24.3923 15.086 23.697C14.1271 23.0017 12.9416 22.6538 11.5314 22.6538C10.3022 22.6538 9.24185 22.9195 8.35136 23.451C7.46073 23.9826 6.77511 24.726 6.29422 25.6816C5.81346 26.6369 5.57251 27.7478 5.57251 29.0144C5.57251 30.2809 5.81346 31.3918 6.29422 32.3474C6.77511 33.3027 7.46073 34.0463 8.35136 34.5778C9.24185 35.1092 10.3022 35.3749 11.5314 35.3749C12.9416 35.3749 14.1271 35.0273 15.086 34.3317ZM21.0561 22.6538H18.7345V24.6893H21.0561V22.6538ZM21.0561 25.9613H18.7345V35.1206H21.0561V25.9613ZM28.0042 35.1206L31.3502 25.9613H29.0284L26.8434 32.305L24.6582 25.9613H22.3366L25.6825 35.1206H28.0042ZM34.9523 22.6538H32.6304V24.6893H34.9523V22.6538ZM34.9523 25.9613H32.6304V35.1206H34.9523V25.9613ZM39.5785 22.6538H37.2569V35.1206H39.5785V22.6538ZM47.0217 35.1206V30.9819H49.8896C50.0025 30.9819 50.1627 30.9762 50.3675 30.9651C50.5725 30.9537 50.7546 30.9366 50.9138 30.9142C51.6422 30.8009 52.2408 30.5608 52.7101 30.1933C53.1797 29.8257 53.5267 29.3641 53.7515 28.8071C53.9763 28.2503 54.0892 27.6292 54.0892 26.945C54.0892 26.2611 53.9781 25.641 53.7562 25.084C53.5343 24.5272 53.1883 24.0646 52.7187 23.697C52.2491 23.3295 51.6479 23.0894 50.9138 22.9761C50.7546 22.948 50.5735 22.9301 50.3714 22.9216C50.1695 22.9131 50.009 22.9084 49.8896 22.9084H44.6998V35.1206H47.0217ZM47.0217 25.0625H49.7871C49.9067 25.0625 50.0376 25.0682 50.1799 25.0793C50.3212 25.0907 50.453 25.1135 50.5725 25.1471C50.8844 25.2321 51.1274 25.3753 51.298 25.5759C51.4687 25.7767 51.5863 26 51.6518 26.2458C51.7171 26.4919 51.7504 26.7245 51.7504 26.945C51.7504 27.1655 51.7171 27.3994 51.6518 27.6452C51.5863 27.8913 51.4687 28.1146 51.298 28.3152C51.1274 28.516 50.8844 28.6582 50.5725 28.743C50.453 28.7768 50.3212 28.7996 50.1799 28.8109C50.0376 28.8221 49.9067 28.8277 49.7871 28.8277H47.0217V25.0625ZM57.7073 35.1206V30.4391C57.7073 30.0886 57.7557 29.774 57.8525 29.4941C57.949 29.2142 58.0913 28.9709 58.2792 28.7647C58.467 28.5584 58.6975 28.3925 58.9706 28.2681C59.2438 28.1381 59.55 28.0609 59.8887 28.0353C60.2272 28.0099 60.524 28.0363 60.7802 28.1154V25.9613C60.5014 25.9274 60.2225 25.9209 59.9436 25.9398C59.6647 25.9605 59.3944 26.0086 59.1327 26.0838C58.871 26.1611 58.6291 26.2668 58.4071 26.4025C58.1171 26.572 57.8723 26.7868 57.6733 27.0469C57.474 27.3069 57.3148 27.5953 57.1951 27.912L57.417 28.2002V25.9613H55.3686V35.1206H57.7073ZM68.3902 34.7595C69.0928 34.3506 69.642 33.7824 70.0374 33.0559C70.4331 32.3293 70.6303 31.4908 70.6303 30.5409C70.6303 29.5967 70.4339 28.7618 70.0413 28.0353C69.6488 27.3089 69.1014 26.7388 68.3987 26.326C67.6958 25.9132 66.8802 25.7069 65.9528 25.7069C65.0423 25.7069 64.2371 25.9106 63.5371 26.3174C62.8373 26.7245 62.2881 27.2919 61.8898 28.0174C61.4915 28.745 61.2922 29.5853 61.2922 30.5409C61.2922 31.4851 61.4876 32.321 61.8776 33.0473C62.2673 33.7739 62.8115 34.3431 63.5116 34.7559C64.2114 35.1686 65.0251 35.3749 65.9528 35.3749C66.8745 35.3749 67.6875 35.1694 68.3902 34.7595ZM64.3102 32.4952C63.9374 32.0119 63.7506 31.3608 63.7506 30.5409C63.7506 30.0095 63.8292 29.5429 63.9858 29.1415C64.1422 28.7401 64.3823 28.4263 64.7064 28.2002C65.0308 27.974 65.4463 27.8611 65.9528 27.8611C66.6867 27.8611 67.2406 28.1043 67.6134 28.5905C67.9861 29.0767 68.1719 29.7267 68.1719 30.5409C68.1719 31.3267 67.989 31.9695 67.6219 32.4707C67.2549 32.9711 66.6981 33.2208 65.9528 33.2208C65.2301 33.2208 64.6828 32.9786 64.3102 32.4952ZM77.6125 33.204C77.0662 33.2774 76.5682 33.2999 76.1187 33.2717C75.6692 33.2435 75.3419 33.0683 75.1372 32.746C75.0289 32.5764 74.9712 32.3492 74.9626 32.0628C74.954 31.7782 74.9493 31.4569 74.9493 31.1008V23.4171H72.6275V31.2362C72.6275 31.7847 72.6332 32.2758 72.6447 32.7082C72.6561 33.1406 72.7755 33.5656 73.0031 33.9841C73.2537 34.4307 73.6197 34.7548 74.1005 34.9546C74.5812 35.1555 75.1275 35.2627 75.7394 35.2778C76.351 35.2912 76.9751 35.2392 77.6125 35.1206V33.204ZM77.6125 25.9613H71.057V27.7424H77.6125V25.9613ZM85.4615 34.6796C86.2086 34.2159 86.757 33.5656 87.1041 32.7289L84.7825 32.0675C84.6116 32.4407 84.3642 32.7261 84.0398 32.924C83.7154 33.1218 83.3256 33.2208 82.8704 33.2208C82.1477 33.2208 81.5996 32.9881 81.2278 32.5216C80.854 32.0553 80.6682 31.3947 80.6682 30.5409C80.6682 29.6081 80.854 28.9032 81.2278 28.4256C81.5996 27.9476 82.1818 27.7083 82.9729 27.7083C83.6501 27.7083 84.1384 27.9138 84.4373 28.3237C84.7359 28.7337 84.8847 29.4044 84.8847 30.3375V31.1855H87.1808C87.2776 30.0772 87.1639 29.1134 86.8395 28.2935C86.5151 27.4739 86.0143 26.8377 85.3371 26.3854C84.66 25.9331 83.8379 25.7069 82.8704 25.7069C81.9599 25.7069 81.1547 25.9124 80.4549 26.3224C79.7548 26.732 79.2057 27.3069 78.8074 28.0477C78.4091 28.7882 78.2098 29.659 78.2098 30.6596C78.2098 31.5756 78.4137 32.3887 78.8206 33.0983C79.2267 33.8078 79.7899 34.3648 80.5108 34.769C81.2296 35.1723 82.0624 35.3749 83.007 35.3749C83.8946 35.3749 84.713 35.1431 85.4615 34.6796ZM86.0627 29.4724H79.9512V31.1855H86.0627V29.4724ZM95.4349 34.5863C96.1633 34.0603 96.6584 33.3112 96.9201 32.3389L94.5472 31.847C94.4107 32.2879 94.2057 32.6271 93.9325 32.8646C93.6593 33.1021 93.261 33.2208 92.7376 33.2208C92.0376 33.2208 91.5095 32.9739 91.1538 32.4792C90.7982 31.9845 90.6208 31.338 90.6208 30.5409C90.6208 30.032 90.6947 29.576 90.8427 29.1707C90.9907 28.7675 91.2212 28.448 91.5342 28.2134C91.8471 27.9789 92.2483 27.8611 92.7376 27.8611C93.1643 27.8611 93.5467 27.9939 93.8851 28.2596C94.2239 28.5253 94.4619 28.8957 94.5985 29.3705L96.9201 28.76C96.7153 27.8158 96.2439 27.0714 95.5069 26.5247C94.7699 25.9801 93.8586 25.7069 92.7717 25.7069C91.8328 25.7069 91.0191 25.916 90.3305 26.3345C89.6421 26.753 89.108 27.3268 88.7298 28.0562C88.3512 28.7854 88.1626 29.6138 88.1626 30.5409C88.1626 31.4569 88.3445 32.2794 88.7087 33.0088C89.0729 33.7382 89.5966 34.3149 90.2792 34.7388C90.9621 35.163 91.7816 35.3749 92.7376 35.3749C93.8074 35.3749 94.7065 35.112 95.4349 34.5863ZM103.732 33.204C103.185 33.2774 102.687 33.2999 102.238 33.2717C101.788 33.2435 101.461 33.0683 101.256 32.746C101.148 32.5764 101.089 32.3492 101.081 32.0628C101.072 31.7782 101.068 31.4569 101.068 31.1008V23.4171H98.7466V31.2362C98.7466 31.7847 98.7523 32.2758 98.7638 32.7082C98.7752 33.1406 98.8946 33.5656 99.1222 33.9841C99.3728 34.4307 99.7378 34.7548 100.219 34.9546C100.7 35.1555 101.246 35.2627 101.857 35.2778C102.469 35.2912 103.094 35.2392 103.732 35.1206V33.204ZM103.732 25.9613H97.176V27.7424H103.732V25.9613ZM107.845 22.6538H105.523V24.6893H107.845V22.6538ZM107.845 25.9613H105.523V35.1206H107.845V25.9613ZM116.564 34.7595C117.267 34.3506 117.816 33.7824 118.212 33.0559C118.607 32.3293 118.804 31.4908 118.804 30.5409C118.804 29.5967 118.608 28.7618 118.215 28.0353C117.823 27.3089 117.276 26.7388 116.573 26.326C115.87 25.9132 115.055 25.7069 114.127 25.7069C113.216 25.7069 112.411 25.9106 111.711 26.3174C111.011 26.7245 110.462 27.2919 110.064 28.0174C109.666 28.745 109.467 29.5853 109.467 30.5409C109.467 31.4851 109.662 32.321 110.052 33.0473C110.441 33.7739 110.986 34.3431 111.686 34.7559C112.386 35.1686 113.199 35.3749 114.127 35.3749C115.049 35.3749 115.862 35.1694 116.564 34.7595ZM112.484 32.4952C112.112 32.0119 111.925 31.3608 111.925 30.5409C111.925 30.0095 112.004 29.5429 112.16 29.1415C112.317 28.7401 112.556 28.4263 112.881 28.2002C113.205 27.974 113.62 27.8611 114.127 27.8611C114.861 27.8611 115.415 28.1043 115.788 28.5905C116.16 29.0767 116.346 29.7267 116.346 30.5409C116.346 31.3267 116.163 31.9695 115.796 32.4707C115.429 32.9711 114.873 33.2208 114.127 33.2208C113.404 33.2208 112.857 32.9786 112.484 32.4952ZM128.894 35.1206V29.9813C128.894 29.8286 128.882 29.5853 128.86 29.2519C128.837 28.9182 128.771 28.5499 128.663 28.1456C128.555 27.7414 128.375 27.3521 128.122 26.9791C127.868 26.6059 127.514 26.2978 127.058 26.0546C126.603 25.8116 126.014 25.6899 125.292 25.6899C124.387 25.6899 123.638 25.885 123.043 26.2751C122.448 26.6653 122.002 27.1769 121.707 27.8101C121.411 28.4434 121.263 29.1219 121.263 29.8456L122.594 30.4732C122.594 29.902 122.659 29.4442 122.787 29.0991C122.915 28.7543 123.078 28.4933 123.277 28.3152C123.476 28.1371 123.69 28.0164 123.917 27.9544C124.145 27.8921 124.358 27.8611 124.558 27.8611C125.053 27.8611 125.436 27.9712 125.706 28.1919C125.976 28.4124 126.171 28.6864 126.29 29.0144C126.41 29.3424 126.481 29.6693 126.504 29.9935C126.526 30.3194 126.538 30.5861 126.538 30.7953V35.1206H128.894ZM122.594 35.1206V28.9976H122.304V25.9613H120.238V35.1206H122.594Z" fill="#F14E2B"/>
<path d="M13.8697 14.4236C14.6208 14.025 15.207 13.4641 15.628 12.7407C16.0491 12.0169 16.2597 11.166 16.2597 10.188V2.55523H13.9038V10.1709C13.9038 10.5666 13.8365 10.9285 13.7037 11.2565C13.569 11.5845 13.3832 11.867 13.1441 12.1046C12.9051 12.3421 12.6244 12.5259 12.3038 12.6559C11.9814 12.7859 11.6334 12.8508 11.2577 12.8508C10.8935 12.8508 10.5503 12.7867 10.2287 12.6595C9.9072 12.5323 9.62551 12.3496 9.38466 12.1131C9.14189 11.8756 8.95318 11.593 8.8166 11.265C8.68002 10.937 8.61173 10.5723 8.61173 10.1709V2.55523L6.25586 2.57229V10.188C6.25586 11.166 6.46643 12.0169 6.88753 12.7407C7.30866 13.4641 7.8947 14.025 8.64589 14.4236C9.39697 14.8222 10.2677 15.022 11.2577 15.022C12.248 15.022 13.1185 14.8222 13.8697 14.4236ZM26.8608 14.7676V9.62812C26.8608 9.47562 26.8496 9.2324 26.8268 8.89897C26.8041 8.56528 26.7386 8.19592 26.6303 7.79166C26.5224 7.38741 26.3413 6.99918 26.0879 6.6262C25.8347 6.25297 25.481 5.94486 25.0258 5.70164C24.5706 5.45841 23.9815 5.33693 23.2589 5.33693C22.3541 5.33693 21.6039 5.53208 21.0092 5.92212C20.4146 6.31216 19.9698 6.82393 19.6739 7.4572C19.378 8.09046 19.2301 8.7687 19.2301 9.49242L20.5616 10.12C20.5616 9.54903 20.6252 9.09101 20.7532 8.74621C20.8812 8.4014 21.0453 8.13931 21.2445 7.96122C21.4436 7.78313 21.657 7.66346 21.8847 7.60143C22.1122 7.53913 22.3256 7.50811 22.5248 7.50811C23.0199 7.50811 23.4021 7.61823 23.6724 7.83871C23.9427 8.05918 24.1381 8.33342 24.2575 8.66143C24.3771 8.98943 24.4482 9.31537 24.471 9.64053C24.4937 9.96543 24.5051 10.2332 24.5051 10.4423V14.7676H26.8608ZM20.5616 14.7676V8.64437H20.2715V5.60833H18.2058V14.7676H20.5616ZM31.1458 2.30089H28.8242V4.33637H31.1458V2.30089ZM31.1458 5.60833H28.8242V14.7676H31.1458V5.60833ZM39.8645 14.4065C40.5674 13.9966 41.1163 13.4285 41.512 12.7019C41.9074 11.9756 42.1057 11.1379 42.1057 10.188C42.1057 9.24377 41.9092 8.40786 41.5167 7.68129C41.1241 6.95498 40.5757 6.38582 39.873 5.97304C39.1704 5.56025 38.3545 5.35399 37.4281 5.35399C36.5176 5.35399 35.7125 5.55741 35.0124 5.96451C34.3126 6.3716 33.7624 6.93792 33.3651 7.66449C32.9658 8.39107 32.7676 9.2324 32.7676 10.188C32.7676 11.1322 32.9621 11.9671 33.3519 12.6934C33.7416 13.4199 34.2868 13.9901 34.9869 14.4029C35.6867 14.8147 36.4997 15.022 37.4281 15.022C38.3499 15.022 39.1618 14.8165 39.8645 14.4065ZM35.7845 12.1423C35.4117 11.659 35.226 11.0076 35.226 10.188C35.226 9.65656 35.3038 9.19001 35.4601 8.7886C35.6167 8.38719 35.8576 8.0734 36.1818 7.84724C36.5062 7.62107 36.9206 7.50811 37.4281 7.50811C38.162 7.50811 38.7151 7.75108 39.0876 8.23753C39.4604 8.72346 39.6472 9.37379 39.6472 10.188C39.6472 10.9737 39.4633 11.6166 39.0962 12.117C38.7292 12.6171 38.1735 12.8678 37.4281 12.8678C36.7044 12.8678 36.1573 12.6257 35.7845 12.1423ZM52.1948 14.7676V9.62812C52.1948 9.47562 52.1823 9.2324 52.1607 8.89897C52.1368 8.56528 52.0715 8.19592 51.9643 7.79166C51.8553 7.38741 51.675 6.99918 51.4219 6.6262C51.1685 6.25297 50.8139 5.94486 50.3594 5.70164C49.9034 5.45841 49.3144 5.33693 48.5928 5.33693C47.688 5.33693 46.9377 5.53208 46.343 5.92212C45.7485 6.31216 45.3026 6.82393 45.0076 7.4572C44.7108 8.09046 44.5638 8.7687 44.5638 9.49242L45.8955 10.12C45.8955 9.54903 45.959 9.09101 46.087 8.74621C46.215 8.4014 46.3781 8.13931 46.5782 7.96122C46.7764 7.78313 46.99 7.66346 47.2184 7.60143C47.4452 7.53913 47.6586 7.50811 47.8586 7.50811C48.3537 7.50811 48.7358 7.61823 49.0061 7.83871C49.2764 8.05918 49.4718 8.33342 49.5915 8.66143C49.7109 8.98943 49.7811 9.31537 49.8048 9.64053C49.8267 9.96543 49.8389 10.2332 49.8389 10.4423V14.7676H52.1948ZM45.8955 14.7676V8.64437H45.6052V5.60833H43.5396V14.7676H45.8955Z" fill="#2C3482"/>
</svg>
