<svg width="16" height="16" viewBox="0 0 16 16" fill="none" class="bi bi-flickr" xmlns="http://www.w3.org/2000/svg">
  <path d="M2.01797 0H13.982C15.1113 0 16 0.888675 16 2.01797V13.982C16 14.5824 15.7594 15.0391 15.3996 15.3996C15.0629 15.7363 14.5348 16 13.982 16H2.01797C0.888675 16 0 15.1113 0 13.982V2.01797C0 1.46524 0.26445 0.937107 0.600394 0.600394C0.960938 0.23985 1.41758 0 2.01797 0ZM4.68476 10.6426C6.1746 10.6426 7.39922 9.44102 7.39922 7.95195C7.39922 6.46288 6.17383 5.2375 4.68476 5.2375C3.21953 5.2375 1.97031 6.46288 1.97031 7.95195C1.97031 9.44102 3.21953 10.6426 4.68476 10.6426ZM11.3152 10.6426C12.7805 10.6426 14.0297 9.44102 14.0297 7.95195C14.0297 6.46288 12.7805 5.2375 11.3152 5.2375C9.8254 5.2375 8.57618 6.46288 8.57618 7.95195C8.57618 9.44102 9.8254 10.6426 11.3152 10.6426Z" fill="#212529"/>
</svg>
