<svg width="16" height="16" viewBox="0 0 16 16" class="bi bi-pinterest" fill="none" xmlns="http://www.w3.org/2000/svg">
  <g clip-path="url(#clip0_16135_108095)">
    <path d="M8 0C3.58125 0 0 3.58125 0 8C0 11.275 1.96875 14.0875 4.7875 15.325C4.7625 14.7688 4.78125 14.0937 4.925 13.4875C5.08125 12.8375 5.95625 9.13125 5.95625 9.13125C5.95625 9.13125 5.7 8.61875 5.7 7.86875C5.7 6.68125 6.3875 5.8 7.24375 5.8C7.96875 5.8 8.325 6.34375 8.325 7C8.325 7.73125 7.85625 8.825 7.61875 9.8375C7.41875 10.6875 8.04375 11.375 8.88125 11.375C10.4 11.375 11.4187 9.43125 11.4187 7.125C11.4187 5.375 10.2375 4.0625 8.0875 4.0625C5.6625 4.0625 4.15 5.86875 4.15 7.89375C4.15 8.59375 4.35625 9.08125 4.675 9.4625C4.825 9.6375 4.84375 9.70625 4.7875 9.90625C4.75 10.05 4.6625 10.4062 4.625 10.55C4.56875 10.75 4.40625 10.825 4.225 10.75C3.10625 10.2937 2.5875 9.06875 2.5875 7.69375C2.5875 5.41875 4.50625 2.69375 8.30625 2.69375C11.3625 2.69375 13.3687 4.90625 13.3687 7.275C13.3687 10.4125 11.625 12.7563 9.05 12.7563C8.1875 12.7563 7.375 12.2875 7.09375 11.7625C7.09375 11.7625 6.63125 13.6062 6.53125 13.9625C6.3625 14.5812 6.03125 15.1937 5.725 15.675C6.44375 15.8875 7.20625 16.0062 7.99375 16.0062C12.4125 16.0062 15.9937 12.425 15.9937 8.00625C16 3.58125 12.4187 0 8 0Z" fill="#212529"/>
  </g>
  <defs>
    <clipPath id="clip0_16135_108095">
      <rect width="16" height="16" fill="white"/>
    </clipPath>
  </defs>
</svg>
