<svg width="16" height="16" viewBox="0 0 16 16" class="bi bi-storify" fill="none" xmlns="http://www.w3.org/2000/svg">
  <g clip-path="url(#clip0_16135_108074)">
    <path d="M15.32 5.71088C15.5333 6.11555 15.6953 6.56088 15.808 7.04755C15.9213 7.53422 15.984 8.04422 15.998 8.57555C16.0113 9.10555 15.9573 9.64555 15.838 10.1862C15.718 10.7295 15.54 11.2602 15.3066 11.7782C15.0733 12.2962 14.7533 12.7882 14.346 13.2582C13.9373 13.7289 13.4706 14.1509 12.9413 14.5255C12.4206 14.8949 11.7813 15.2149 11.0413 15.4649C10.3006 15.7249 9.49063 15.8949 8.61063 15.9949L8.4113 15.5142C8.46063 15.5042 8.52063 15.4842 8.61063 15.4549C8.70197 15.4242 8.86063 15.3649 9.0913 15.2542C9.33063 15.1542 9.55063 15.0349 9.7713 14.8942C9.9913 14.7542 10.2306 14.5642 10.4913 14.3142C10.7606 14.0642 10.9806 13.7949 11.1713 13.5042C11.3613 13.2049 11.5213 12.8442 11.652 12.4049C11.782 11.9649 11.8526 11.4949 11.8526 10.9949C11.8526 10.5142 11.7926 10.0742 11.6626 9.65488C11.5326 9.23422 11.362 8.88488 11.152 8.57422C10.9426 8.27488 10.7026 7.98422 10.4526 7.71488C10.2026 7.44488 9.94197 7.18488 9.69197 6.94488C9.4313 6.70488 9.20263 6.45488 8.9813 6.21488C8.77197 5.97422 8.59197 5.70422 8.46197 5.40488C8.33197 5.10488 8.26197 4.79422 8.26197 4.46488C8.26197 3.87488 8.50263 3.36488 8.96197 2.94488C9.43197 2.51422 10.0713 2.30488 10.892 2.30488C11.1326 2.30488 11.3726 2.32422 11.6226 2.37488C11.8726 2.42422 12.172 2.51422 12.512 2.66488C12.8533 2.81555 13.1733 3.00488 13.482 3.23422C13.7933 3.46488 14.1226 3.79422 14.4626 4.20422C14.8026 4.61688 15.114 5.09422 15.3926 5.63422L15.32 5.71088ZM0.679967 10.3009C0.4673 9.89622 0.304633 9.45088 0.192633 8.96355C0.0799666 8.47622 0.0159666 7.96755 0.00263331 7.43622C-0.0113667 6.90555 0.0433 6.36622 0.162633 5.82555C0.2833 5.28155 0.4593 4.75088 0.692633 4.23355C0.9273 3.71555 1.2473 3.22288 1.65263 2.75355C2.06263 2.28355 2.5293 1.86022 3.05863 1.48688C3.57863 1.11622 4.21797 0.796883 4.9593 0.546883C5.69997 0.284883 6.50997 0.105549 7.38997 0.00488281L7.5893 0.478883C7.5473 0.488216 7.48397 0.508216 7.3993 0.532216C7.31663 0.558216 7.15997 0.622216 6.92463 0.727549C6.6913 0.831549 6.46663 0.950216 6.2493 1.08555C6.03463 1.22022 5.79597 1.41155 5.53463 1.65955C5.2733 1.90755 5.04797 2.17755 4.85997 2.46955C4.67063 2.76222 4.51263 3.12622 4.38263 3.56288C4.25197 3.99888 4.18863 4.46622 4.18863 4.96755C4.18863 5.44088 4.24863 5.88422 4.3893 6.30088C4.5193 6.71755 4.68863 7.07555 4.8993 7.37622C5.1093 7.68688 5.3493 7.96622 5.5993 8.24755C5.8493 8.52688 6.10997 8.77688 6.35997 9.01688C6.60997 9.25622 6.8493 9.50622 7.05997 9.74755C7.2793 9.99755 7.44997 10.2669 7.57997 10.5569C7.70997 10.8569 7.7793 11.1669 7.7793 11.4969C7.7793 12.0962 7.53997 12.6075 7.07997 13.0275C6.6093 13.4575 5.96863 13.6669 5.14863 13.6669C4.9093 13.6669 4.66863 13.6469 4.41863 13.5969C4.16863 13.5475 3.86863 13.4575 3.53863 13.3069C3.19863 13.1562 2.87863 12.9669 2.55863 12.7369C2.24797 12.5069 1.91863 12.1769 1.57863 11.7669C1.23863 11.3575 0.928633 10.8775 0.647967 10.3375L0.679967 10.3009Z" fill="#212529"/>
  </g>
  <defs>
    <clipPath id="clip0_16135_108074">
      <rect width="16" height="16" fill="white"/>
    </clipPath>
  </defs>
</svg>
