<svg width="16" height="16" viewBox="0 0 16 16" class="bi bi-yammer" fill="none" xmlns="http://www.w3.org/2000/svg">
  <path fill-rule="evenodd" clip-rule="evenodd" d="M2 0C0.895431 0 0 0.895431 0 2V14C0 15.1046 0.895431 16 2 16H14C15.1046 16 16 15.1046 16 14V2C16 0.895431 15.1046 0 14 0H2ZM3.89865 3.69347C4.17157 3.58578 4.48012 3.71972 4.58782 3.99265L6.37826 8.53006L8.19415 3.99034C8.30311 3.71792 8.61228 3.58542 8.8847 3.69439C9.15712 3.80336 9.28962 4.11253 9.18065 4.38494L6.86992 10.1618L6.52877 11.0611L6.52787 11.0636L6.52772 11.0639L6.52633 11.0676L6.52506 11.0709L6.51746 11.0899C6.51136 11.1048 6.50315 11.124 6.49266 11.1469C6.47175 11.1926 6.44146 11.2535 6.40049 11.3239C6.31928 11.4635 6.19172 11.6478 6.00529 11.8239C5.61643 12.1911 4.99695 12.4941 4.12361 12.3353C3.83495 12.2828 3.64348 12.0063 3.69597 11.7176C3.74845 11.4289 4.02501 11.2375 4.31368 11.29C4.81534 11.3812 5.10212 11.2154 5.27575 11.0514C5.37057 10.9619 5.43833 10.8649 5.48212 10.7896C5.50364 10.7526 5.51828 10.7228 5.52666 10.7045C5.53083 10.6954 5.53336 10.6893 5.53434 10.6869L5.53455 10.6864L5.80528 9.97268L3.59948 4.38264C3.49179 4.10972 3.62573 3.80117 3.89865 3.69347ZM10.1874 8.12519C10.2186 8.40644 12.0624 8.62519 13.3124 8.56269C13.9061 8.53144 13.8749 7.59394 13.2811 7.56269C12.6874 7.50019 10.1561 7.84394 10.1874 8.12519ZM9.40613 6.71894C9.56238 6.96894 11.3124 6.25019 12.3749 5.59394C12.8749 5.28144 12.4061 4.46894 11.8436 4.71894C11.3124 4.96894 9.24988 6.50019 9.40613 6.71894ZM9.43738 9.40644C9.31238 9.62519 10.7811 10.8127 11.8436 11.4377C12.3749 11.7189 12.8749 10.9064 12.3749 10.5627C11.8749 10.2189 9.56238 9.15644 9.43738 9.40644Z" fill="#212529"/>
</svg>
